<svg id="Layer_x0020_1" xmlns="http://www.w3.org/2000/svg" width="363.082" height="334.918" viewBox="0 0 363.082 334.918">
  <g id="Group_29999" data-name="Group 29999" transform="translate(0 0)">
    <path id="Path_26214" data-name="Path 26214" d="M212.489,31.93A179.807,179.807,0,0,1,325.308,71.507l-2.768,2.768a176.7,176.7,0,0,0-220.1,0l-2.767-2.767A179.806,179.806,0,0,1,212.489,31.93ZM353.481,99.68a180.589,180.589,0,0,1,0,225.636l-2.768-2.768a176.7,176.7,0,0,0,0-220.1ZM71.5,325.317a180.587,180.587,0,0,1,0-225.637l2.767,2.767a176.7,176.7,0,0,0,0,220.1ZM212.489,62.268A149.571,149.571,0,0,1,303.7,93.117l-2.776,2.776a146.369,146.369,0,0,0-176.865,0l-2.776-2.776a149.57,149.57,0,0,1,91.208-30.848ZM331.871,121.29a150.262,150.262,0,0,1,0,182.417l-2.777-2.776a146.368,146.368,0,0,0,0-176.864l2.776-2.776ZM93.107,303.707a150.261,150.261,0,0,1,0-182.417l2.776,2.776a146.37,146.37,0,0,0,0,176.865l-2.776,2.776ZM212.489,93.774a118.183,118.183,0,0,1,68.681,21.871l-2.792,2.792a114.881,114.881,0,0,0-131.778,0l-2.792-2.791A118.178,118.178,0,0,1,212.489,93.774Zm96.854,50.044a118.772,118.772,0,0,1,0,137.361l-2.791-2.792a114.881,114.881,0,0,0,0-131.778ZM115.635,281.179a118.774,118.774,0,0,1,0-137.362l2.792,2.792a114.882,114.882,0,0,0,0,131.779Z" transform="translate(-30.948 -30.957)" fill="#2b2a29"/>
    <path id="_1" data-name="1" d="M295.038,41.228l-1.376-1.376.08,1.447-2.907-2.28L287.882,36.8l-3-2.162-3.046-2.1L278.744,30.5l-3.135-1.977-3.178-1.913-3.221-1.849-3.262-1.784-3.3-1.718L259.3,19.6l-3.381-1.584L252.5,16.5l-3.456-1.445-3.492-1.375-3.527-1.3-3.561-1.232L234.874,9.99l-3.627-1.085L227.588,7.9,223.9,6.961l-3.72-.857-3.749-.78-3.777-.7L208.85,4l-3.83-.542L201.163,3l-3.881-.379-3.9-.3-3.927-.213L185.5,1.978l-3.97-.043V-.01l4.012.044,3.992.13L193.5.378l3.947.3,3.922.383,3.9.466,3.872.548,3.845.629,3.818.709L220.6,4.2l3.76.867,3.73.944,3.7,1.021,3.667,1.1L239.085,9.3l3.6,1.245,3.565,1.318,3.53,1.391,3.493,1.461,3.456,1.531,3.418,1.6,3.379,1.669,3.338,1.737,3.3,1.8,3.255,1.87,3.213,1.934,3.169,2,3.125,2.061L286,33.046l3.033,2.184,2.986,2.245,2.937,2.3.08,1.447Zm-.08-1.447a.973.973,0,1,1-1.216,1.518l1.216-1.518Zm-4.063,2.839,2.768-2.768,1.376,1.376L292.27,44l-1.294.073-.082-1.448ZM292.27,44a.973.973,0,0,1-1.376-1.376ZM181.532,5.825V3.881h0l3.912.042,3.892.126,3.87.209,3.848.291,3.824.373,3.8.453,3.776.532,3.749.612,3.723.689,3.7.766,3.667.842,3.638.917,3.608.992,3.577,1.065,3.545,1.138,3.512,1.21,3.478,1.281,3.443,1.351,3.408,1.42,3.372,1.488,3.335,1.556,3.3,1.622,3.258,1.688,3.218,1.752,3.178,1.817,3.136,1.88,3.094,1.942,3.051,2L283.442,36l2.962,2.124,2.916,2.182,2.869,2.24-1.212,1.521-2.838-2.216-2.884-2.159-2.93-2.1-2.974-2.041-3.017-1.981-3.06-1.92-3.1-1.859L267.029,28l-3.183-1.733-3.222-1.669-3.261-1.6-3.3-1.539-3.335-1.472-3.371-1.4-3.406-1.336-3.44-1.266-3.473-1.2-3.506-1.126L230,12.6l-3.568-.981-3.6-.907-3.626-.833-3.655-.758-3.682-.681-3.708-.6L204.427,7.3l-3.759-.448-3.783-.368L193.08,6.2l-3.828-.206-3.85-.125-3.87-.042h0Zm0,0a.972.972,0,1,1,0-1.945ZM70.794,44l1.376-1.376-1.294-.073,2.869-2.24,2.916-2.182L79.623,36l3.007-2.064,3.051-2,3.093-1.942,3.137-1.88L95.088,26.3l3.218-1.753,3.258-1.688,3.3-1.622,3.335-1.556,3.372-1.488,3.408-1.42,3.443-1.351,3.478-1.281,3.512-1.21,3.545-1.138,3.576-1.065,3.607-.992,3.638-.918,3.668-.842,3.7-.766,3.723-.689,3.749-.612,3.775-.533,3.8-.453,3.824-.373,3.848-.291,3.87-.209,3.892-.126,3.912-.042V5.825l-3.87.042-3.85.125-3.828.207-3.806.288-3.783.368-3.759.448L154.9,7.83l-3.709.6-3.682.681-3.655.758-3.627.833-3.6.907-3.568.981-3.537,1.054-3.506,1.126-3.473,1.2-3.44,1.266-3.406,1.336-3.371,1.4L109,21.448l-3.3,1.539-3.261,1.6L99.219,26.26l-3.183,1.734-3.143,1.8-3.1,1.859-3.06,1.92-3.017,1.981L80.74,37.593l-2.93,2.1-2.884,2.159-2.838,2.216-1.294-.073Zm1.294.073a.973.973,0,1,1-1.213-1.521l1.212,1.521ZM69.4,39.853l2.767,2.767L70.794,44l-2.767-2.767.08-1.447,1.3.071Zm-1.376,1.376A.973.973,0,1,1,69.4,39.853ZM181.532-.009V1.936h0l-3.97.043-3.949.129-3.927.213-3.9.3L161.9,3l-3.856.461L154.213,4l-3.8.623-3.777.7-3.749.78-3.719.858-3.69.934-3.659,1.01-3.627,1.084-3.594,1.158-3.561,1.232-3.527,1.3-3.491,1.375-3.456,1.445-3.419,1.515L103.76,19.6l-3.342,1.651-3.3,1.718-3.262,1.784-3.22,1.849L87.455,28.52,84.32,30.5l-3.091,2.039-3.046,2.1-3,2.162-2.953,2.221L69.322,41.3l-1.216-1.518,2.937-2.3,2.986-2.245,3.033-2.184,3.079-2.123,3.125-2.061,3.169-2,3.213-1.934L92.9,23.061l3.3-1.8,3.338-1.736,3.379-1.669,3.418-1.6,3.456-1.532,3.493-1.461,3.53-1.39,3.565-1.318,3.6-1.245,3.634-1.171,3.667-1.1,3.7-1.021,3.73-.944,3.76-.867,3.789-.789,3.818-.709,3.845-.629,3.872-.548,3.9-.466L165.612.68l3.946-.3,3.969-.215,3.992-.13,4.012-.044h0Zm0,0a.972.972,0,1,1,0,1.945ZM363.072,181.532h-1.945l-.043-3.97-.129-3.949-.213-3.927-.3-3.9-.379-3.881-.461-3.856-.542-3.83-.622-3.8-.7-3.776-.78-3.749-.858-3.719-.934-3.69-1.01-3.659-1.085-3.627-1.158-3.594-1.232-3.561-1.3-3.527L348,114.015l-1.445-3.455-1.515-3.419-1.584-3.381-1.651-3.342-1.718-3.3-1.784-3.262-1.85-3.22-1.913-3.178-1.977-3.135-2.039-3.091-2.1-3.046-2.162-3-2.221-2.953-2.28-2.907,1.518-1.216,2.3,2.937,2.245,2.986,2.184,3.033,2.124,3.079,2.061,3.125,2,3.169,1.934,3.213L340,92.9l1.8,3.3,1.736,3.338,1.67,3.379,1.6,3.418,1.531,3.456,1.461,3.493,1.39,3.53,1.318,3.565,1.245,3.6,1.171,3.634,1.1,3.667,1.021,3.7.944,3.73.867,3.76.788,3.789.709,3.818.629,3.845.548,3.872.466,3.9.383,3.922.3,3.946.215,3.969.13,3.992.043,4.012h0Zm0,0a.972.972,0,1,1-1.945,0h1.945ZM321.836,295.037l1.376-1.376-1.447.08,2.28-2.906,2.221-2.953,2.162-3,2.1-3.046,2.039-3.091,1.977-3.135,1.913-3.178,1.849-3.221,1.784-3.262,1.718-3.3,1.651-3.342,1.584-3.381,1.515-3.419L348,249.048l1.375-3.491,1.3-3.527,1.232-3.561,1.158-3.594,1.084-3.627,1.01-3.659.934-3.69.858-3.719.78-3.749.7-3.776.622-3.8.542-3.83.461-3.856.38-3.881.3-3.9.213-3.927.129-3.949.043-3.97h1.945l-.044,4.012-.13,3.991-.215,3.969-.3,3.946L362,201.373l-.466,3.9-.548,3.872-.629,3.845-.709,3.818-.788,3.789-.867,3.76-.944,3.73-1.021,3.7-1.1,3.667-1.171,3.634-1.245,3.6L351.2,246.25l-1.39,3.53-1.461,3.493-1.532,3.456-1.6,3.418-1.669,3.379-1.737,3.338-1.8,3.3-1.869,3.255-1.934,3.213-2,3.169-2.061,3.125L330.017,286l-2.184,3.033-2.245,2.986-2.3,2.937-1.447.08Zm1.446-.08a.972.972,0,1,1-1.518-1.216l1.518,1.216Zm-2.839-4.063,2.768,2.768-1.376,1.376-2.768-2.768L319,290.976l1.448-.082Zm-1.376,1.376a.973.973,0,0,1,1.376-1.376Zm38.17-110.738h1.945l-.042,3.912-.126,3.892-.209,3.87-.292,3.848-.373,3.824-.453,3.8-.533,3.775-.612,3.749-.689,3.723-.766,3.7-.842,3.668-.918,3.638-.992,3.607-1.065,3.577-1.138,3.544-1.21,3.512-1.281,3.478-1.351,3.443-1.42,3.408-1.488,3.372-1.556,3.335-1.622,3.3-1.688,3.258-1.753,3.218-1.817,3.178-1.88,3.136-1.942,3.094-2,3.051-2.064,3.006-2.124,2.962-2.182,2.916-2.24,2.869-1.521-1.212,2.215-2.838,2.159-2.884,2.1-2.93,2.041-2.974,1.981-3.017,1.92-3.06,1.859-3.1,1.8-3.143,1.734-3.183,1.669-3.222,1.6-3.261,1.538-3.3,1.472-3.335,1.4-3.371,1.336-3.406,1.266-3.44,1.2-3.473,1.126-3.506L350.467,230l.981-3.568.907-3.6.833-3.627.758-3.655.681-3.682.6-3.709.527-3.734.448-3.759.368-3.783.288-3.806.207-3.828.125-3.85.042-3.87h0Zm0,0a.972.972,0,1,1,1.945,0ZM319.068,70.794l1.376,1.376.073-1.294,2.24,2.869,2.182,2.916,2.124,2.962,2.064,3.007,2,3.051,1.942,3.094,1.88,3.136,1.817,3.178,1.752,3.218,1.688,3.258,1.622,3.3,1.556,3.335,1.488,3.372,1.42,3.408,1.351,3.444,1.281,3.478,1.21,3.512,1.138,3.544,1.065,3.576.992,3.607.917,3.638.842,3.667.766,3.7.689,3.723.611,3.75.532,3.775.453,3.8.373,3.824.291,3.848.209,3.87.126,3.892.042,3.912h-1.945l-.042-3.87-.125-3.85-.206-3.828-.288-3.806-.369-3.783-.448-3.759-.527-3.734-.6-3.708-.681-3.682-.758-3.655-.833-3.626-.907-3.6-.981-3.568-1.054-3.537-1.126-3.506-1.2-3.473-1.266-3.44L344.49,115.7l-1.4-3.371L341.614,109l-1.539-3.3-1.6-3.261L336.8,99.219l-1.733-3.183-1.8-3.143-1.859-3.1-1.92-3.06-1.981-3.017L325.47,80.74l-2.1-2.93-2.159-2.884L319,72.088l.073-1.294Zm-.073,1.294a.973.973,0,0,1,1.521-1.213l-1.521,1.212ZM323.21,69.4l-2.768,2.768-1.376-1.376,2.768-2.768,1.447.08-.071,1.3Zm-1.376-1.376A.973.973,0,0,1,323.21,69.4ZM-.009,181.532H1.936l.043,3.97.129,3.949.213,3.927.3,3.9L3,201.164l.461,3.856L4,208.85l.622,3.8.7,3.776.78,3.749.857,3.72.934,3.689,1.01,3.659,1.085,3.627,1.158,3.594,1.232,3.561,1.3,3.527,1.375,3.491,1.445,3.456,1.515,3.419L19.6,259.3l1.651,3.342,1.719,3.3,1.784,3.262,1.849,3.22,1.913,3.178,1.977,3.135,2.039,3.091,2.1,3.046,2.162,3,2.221,2.953,2.28,2.907-1.518,1.216-2.3-2.937-2.245-2.986L33.048,286l-2.124-3.079L28.863,279.8l-2-3.169-1.934-3.213-1.87-3.255-1.8-3.3-1.737-3.338-1.669-3.379-1.6-3.418-1.531-3.456-1.461-3.493-1.391-3.53-1.318-3.566-1.245-3.6-1.171-3.634-1.1-3.667-1.021-3.7-.944-3.73-.867-3.76-.789-3.789-.709-3.818-.629-3.845-.548-3.872-.466-3.9L.68,197.451.38,193.5l-.215-3.969-.13-3.992-.044-4.012h0Zm0,0a.972.972,0,1,1,1.945,0ZM41.229,68.026,39.853,69.4l1.447-.08-2.28,2.906L36.8,75.182l-2.162,3-2.1,3.046L30.5,84.32,28.52,87.455l-1.913,3.178-1.849,3.221-1.784,3.262-1.719,3.3L19.6,103.76l-1.584,3.381-1.515,3.419-1.445,3.455-1.375,3.491-1.3,3.527-1.232,3.561-1.158,3.594-1.084,3.627L7.9,135.476l-.934,3.69L6.1,142.885l-.78,3.749-.7,3.777L4,154.214l-.542,3.83L3,161.9l-.379,3.881-.3,3.9-.213,3.927-.129,3.949-.043,3.97H-.009l.044-4.012.13-3.992.215-3.969.3-3.946.383-3.922.466-3.9.548-3.872.629-3.845.709-3.818.789-3.789.867-3.76.944-3.73,1.021-3.7,1.1-3.667L9.3,123.979l1.245-3.6,1.318-3.565,1.39-3.53,1.461-3.493,1.532-3.456,1.6-3.418,1.669-3.379L21.258,96.2l1.8-3.3,1.87-3.255,1.934-3.213,2-3.169,2.061-3.125,2.124-3.079,2.184-3.033,2.245-2.986,2.3-2.937,1.447-.08Zm-1.447.08A.973.973,0,1,1,41.3,69.322l-1.518-1.216Zm2.839,4.063L39.854,69.4l1.376-1.376L44,70.793l.073,1.294-1.448.082ZM44,70.793a.973.973,0,1,1-1.376,1.376ZM5.826,181.532H3.881l.042-3.912.126-3.892.209-3.87.291-3.848.373-3.824.453-3.8.532-3.776.612-3.749.689-3.723.766-3.7.842-3.667.918-3.638.992-3.608,1.066-3.576,1.138-3.545,1.21-3.512,1.281-3.478,1.351-3.443,1.42-3.408,1.488-3.372,1.556-3.335,1.622-3.3,1.688-3.258L26.3,95.087l1.817-3.178,1.88-3.136,1.942-3.094,2-3.051L36,79.621l2.124-2.962,2.182-2.916,2.24-2.869,1.521,1.212-2.216,2.838L39.7,77.809l-2.1,2.93-2.041,2.974L33.572,86.73l-1.92,3.06-1.859,3.1L28,96.034l-1.733,3.183-1.669,3.222-1.6,3.26L21.451,109l-1.472,3.335-1.4,3.371-1.336,3.406-1.266,3.44-1.2,3.473-1.126,3.506L12.6,133.065l-.981,3.568-.907,3.6-.833,3.626-.758,3.655-.681,3.682-.6,3.708L7.3,158.636l-.448,3.759-.368,3.783L6.2,169.984l-.206,3.828-.125,3.85-.042,3.87h0Zm0,0a.972.972,0,0,1-1.945,0ZM44,292.27l-1.376-1.376-.073,1.294-2.24-2.869L38.126,286.4,36,283.441l-2.064-3.006-2-3.051-1.942-3.094-1.88-3.136L26.3,267.976l-1.752-3.218L22.857,261.5l-1.622-3.3-1.556-3.335L18.191,251.5l-1.42-3.408-1.351-3.444-1.281-3.478-1.21-3.512-1.138-3.544-1.066-3.576-.992-3.608-.918-3.638-.842-3.667-.766-3.7L6.52,212.2l-.612-3.75-.532-3.775-.453-3.8-.373-3.824L4.258,193.2l-.209-3.87-.126-3.892-.042-3.912H5.825l.042,3.87.125,3.85.206,3.828.288,3.806.368,3.783.448,3.759.527,3.734.6,3.708.681,3.682.758,3.655.833,3.626.907,3.6L12.6,230l1.054,3.537,1.126,3.505,1.2,3.473,1.266,3.44,1.336,3.406,1.4,3.371,1.472,3.335,1.539,3.3,1.6,3.26,1.669,3.222L28,267.028l1.8,3.143,1.859,3.1,1.92,3.06,1.981,3.017,2.041,2.973,2.1,2.93,2.159,2.884,2.216,2.838L44,292.27Zm.073-1.294a.973.973,0,0,1-1.521,1.213l1.521-1.212Zm-4.216,2.686,2.768-2.768L44,292.27l-2.768,2.768-1.447-.08.071-1.3Zm1.376,1.376a.973.973,0,0,1-1.376-1.376Zm232.2-232.2-1.376-1.376.1,1.46-2.374-1.779-2.41-1.733-2.445-1.686-2.48-1.638-2.515-1.59-2.548-1.541L254.8,51.463l-2.613-1.441-2.645-1.39-2.676-1.338-2.705-1.286-2.735-1.233L238.659,43.6l-2.792-1.125-2.82-1.07L230.2,40.388l-2.873-.957-2.9-.9-2.924-.843-2.948-.785-2.971-.726-2.994-.666-3.016-.606-3.038-.545-3.059-.483-3.079-.421-3.1-.358-3.118-.295-3.137-.23-3.154-.165-3.171-.1-3.188-.033V30.329l3.228.034,3.212.1,3.195.167,3.177.233,3.159.3,3.139.363,3.119.426,3.1.49,3.078.552,3.056.614,3.033.675,3.01.735,2.986.8,2.962.854,2.937.913,2.911.97,2.884,1.027,2.857,1.084L239.4,41.8,242.2,43l2.771,1.249,2.741,1.3,2.711,1.356L253.1,48.31l2.647,1.46,2.614,1.511,2.582,1.561,2.547,1.611,2.513,1.659,2.477,1.708,2.441,1.756,2.4,1.8.1,1.46Zm-.1-1.46a.973.973,0,1,1-1.182,1.545l1.182-1.545Zm-4.055,2.861,2.776-2.776,1.376,1.376-2.776,2.776-1.276.087-.1-1.462Zm1.376,1.376a.973.973,0,1,1-1.376-1.376Zm-89.121-29.45V34.219h0l3.128.033,3.112.1,3.1.161,3.079.224,3.06.287,3.042.35,3.023.411,3,.472,2.983.532,2.962.591,2.94.65,2.918.708,2.9.767,2.871.823,2.847.88,2.822.936,2.8.99,2.77,1.045,2.743,1.1,2.716,1.151,2.688,1.2,2.659,1.256,2.63,1.307,2.6,1.358,2.569,1.407,2.538,1.456,2.505,1.505L261,57.473l2.44,1.6,2.406,1.647,2.371,1.693,2.336,1.738L269.377,65.7l-2.305-1.715-2.34-1.671-2.374-1.625L259.95,59.11l-2.44-1.532-2.473-1.485-2.5-1.437L250,53.266l-2.565-1.339-2.6-1.29L242.214,49.4l-2.652-1.188-2.68-1.136-2.707-1.084-2.734-1.031-2.759-.977-2.785-.923-2.809-.868-2.833-.813-2.856-.756-2.879-.7-2.9-.641L208.7,38.7l-2.943-.525-2.963-.466-2.983-.405-3-.345-3.02-.284-3.038-.221-3.055-.159-3.071-.1-3.087-.032h0Zm0,0a.972.972,0,0,1,0-1.945Zm-89.12,29.45,1.376-1.376-1.276-.087,2.336-1.738,2.371-1.693,2.406-1.647,2.439-1.6,2.473-1.553,2.505-1.505,2.537-1.456,2.569-1.407,2.6-1.358,2.63-1.307,2.659-1.256,2.688-1.2,2.716-1.151,2.744-1.1,2.77-1.045,2.8-.99,2.822-.935,2.847-.88,2.871-.823,2.9-.767,2.918-.708,2.94-.65,2.962-.592,2.983-.532,3-.472,3.023-.411,3.042-.35,3.061-.287,3.079-.224,3.095-.161,3.112-.1,3.128-.033v1.945l-3.087.032-3.071.1-3.055.159-3.038.221-3.02.284-3,.345-2.983.405-2.963.466-2.943.525-2.923.584-2.9.642-2.879.7-2.856.756-2.833.812-2.809.868-2.785.922-2.759.977L128.89,45.99l-2.707,1.084L123.5,48.21,120.851,49.4l-2.624,1.239-2.595,1.29-2.565,1.339-2.535,1.389-2.5,1.437-2.473,1.485-2.44,1.532-2.407,1.579-2.374,1.625-2.34,1.671L93.689,65.7l-1.276-.087Zm1.276.087a.973.973,0,0,1-1.177-1.549L93.688,65.7Zm-2.677-4.238,2.776,2.776-1.376,1.376-2.776-2.776.1-1.46,1.279.085Zm-1.376,1.376a.973.973,0,1,1,1.376-1.376Zm91.9-32.509v1.945h0l-3.188.033-3.171.1-3.154.165-3.137.23-3.118.295-3.1.358-3.079.421-3.059.483-3.038.545-3.016.606-2.994.666-2.971.726-2.948.785-2.924.843-2.9.9-2.873.957L130.018,41.4l-2.82,1.07L124.405,43.6l-2.764,1.179-2.735,1.233L116.2,47.3l-2.675,1.338-2.645,1.39-2.613,1.441-2.581,1.491L103.139,54.5l-2.515,1.59-2.48,1.638L95.7,59.41l-2.41,1.733-2.374,1.779-1.182-1.545,2.4-1.8,2.441-1.756,2.477-1.708,2.512-1.659,2.547-1.611,2.581-1.561,2.615-1.511,2.647-1.46,2.679-1.408,2.71-1.356,2.741-1.3L120.86,43l2.8-1.194,2.829-1.14,2.857-1.084,2.884-1.027,2.911-.97,2.937-.913,2.962-.854,2.986-.8,3.011-.735,3.033-.675,3.056-.614,3.078-.552,3.1-.49,3.119-.426,3.139-.363,3.159-.3,3.177-.233,3.195-.167,3.212-.1,3.228-.034h0Zm0,0a.972.972,0,1,1,0,1.945V30.33Zm151.2,151.2H330.79l-.033-3.188-.1-3.171-.165-3.154-.23-3.137-.295-3.118-.358-3.1-.421-3.079-.483-3.059-.545-3.038-.606-3.016-.666-2.994-.726-2.971-.785-2.948-.843-2.924-.9-2.9-.957-2.873-1.014-2.847-1.07-2.82-1.125-2.792-1.179-2.764-1.233-2.735-1.286-2.706-1.338-2.676-1.39-2.645-1.441-2.613-1.491-2.581-1.541-2.548-1.59-2.515-1.638-2.48L303.654,95.7l-1.733-2.41-1.779-2.374,1.545-1.182,1.8,2.4,1.756,2.441,1.708,2.477,1.659,2.513,1.611,2.547,1.561,2.582,1.51,2.614,1.46,2.647,1.408,2.679,1.356,2.711,1.3,2.741,1.249,2.771,1.194,2.8,1.14,2.829,1.084,2.857,1.027,2.884.97,2.911.913,2.936.854,2.962.8,2.986.735,3.01.675,3.034.614,3.056.552,3.078.49,3.1.426,3.119.363,3.139.3,3.159.233,3.177.167,3.195.1,3.212.034,3.228h0Zm0,0a.972.972,0,1,1-1.945,0h1.945Zm-32.508,91.9,1.376-1.376-1.46.1,1.779-2.374,1.733-2.41,1.686-2.445,1.638-2.48,1.59-2.515,1.541-2.548L311.6,254.8l1.441-2.613,1.39-2.645,1.338-2.675,1.286-2.706,1.233-2.735,1.179-2.764,1.125-2.792,1.07-2.82,1.014-2.847.958-2.873.9-2.9.843-2.924.785-2.948.726-2.971.666-2.994.606-3.016.545-3.038.483-3.059.421-3.079.358-3.1.295-3.118.23-3.137.165-3.154.1-3.171.033-3.188h1.945l-.034,3.228-.1,3.212-.167,3.195-.233,3.177-.3,3.159-.363,3.14-.426,3.12-.489,3.1-.552,3.078-.614,3.056-.675,3.033-.735,3.01-.8,2.986-.854,2.962-.912,2.936-.97,2.911-1.027,2.884-1.084,2.857-1.14,2.829-1.194,2.8-1.249,2.771-1.3,2.741-1.356,2.71-1.408,2.679-1.46,2.647-1.511,2.614-1.561,2.581-1.611,2.548-1.659,2.512-1.708,2.477-1.756,2.441-1.8,2.4-1.46.1Zm1.46-.1a.973.973,0,1,1-1.545-1.182l1.545,1.182Zm-2.861-4.055,2.776,2.776-1.376,1.376-2.777-2.776-.087-1.276,1.462-.1Zm-1.376,1.376a.973.973,0,1,1,1.376-1.376Zm29.45-89.12h1.945l-.033,3.128-.1,3.112-.161,3.1-.224,3.079-.287,3.06-.35,3.042-.411,3.023-.472,3-.532,2.983-.592,2.962-.65,2.94-.708,2.918-.767,2.9-.823,2.871-.88,2.847-.935,2.822-.99,2.8-1.045,2.77-1.1,2.743-1.151,2.716-1.2,2.688-1.256,2.659-1.307,2.63-1.358,2.6-1.407,2.569-1.456,2.537-1.505,2.505L305.591,261l-1.6,2.439-1.647,2.406-1.693,2.371-1.738,2.336-1.549-1.176,1.715-2.305,1.671-2.34,1.625-2.374,1.58-2.407,1.532-2.44,1.485-2.473,1.437-2.5L309.8,250l1.34-2.565,1.29-2.595,1.239-2.624,1.188-2.652,1.136-2.68,1.084-2.707,1.031-2.734.977-2.759L320,225.9l.868-2.809.813-2.833.756-2.856.7-2.879.642-2.9.584-2.923.525-2.943.466-2.963.405-2.983.345-3,.284-3.02.221-3.038.159-3.055.1-3.071.032-3.087h0Zm0,0a.972.972,0,1,1,1.945,0H326.9Zm-29.45-89.12,1.376,1.376.087-1.276,1.738,2.336,1.693,2.371,1.647,2.406,1.6,2.44,1.553,2.473,1.505,2.505,1.456,2.538,1.407,2.569,1.358,2.6,1.307,2.63,1.256,2.659,1.2,2.688,1.151,2.716,1.1,2.744,1.045,2.77.99,2.8.935,2.822.88,2.847.823,2.871.767,2.9.708,2.918.651,2.94.591,2.962.532,2.983.472,3,.411,3.023.35,3.042.287,3.061.224,3.078.161,3.1.1,3.112.033,3.128H326.9l-.032-3.087-.1-3.071-.159-3.055-.221-3.037-.284-3.02-.345-3-.405-2.983-.466-2.963-.525-2.943-.584-2.923-.641-2.9-.7-2.879-.756-2.856-.812-2.833L320,137.167l-.923-2.784-.977-2.759-1.031-2.734-1.084-2.707-1.136-2.68-1.188-2.652-1.239-2.624-1.29-2.595-1.339-2.565-1.389-2.535-1.437-2.5-1.485-2.473-1.533-2.44-1.579-2.408-1.625-2.374-1.671-2.34-1.715-2.305.087-1.276Zm-.087,1.276a.973.973,0,1,1,1.549-1.177l-1.549,1.176Zm4.238-2.677-2.776,2.776-1.376-1.376,2.776-2.776,1.46.1-.085,1.279Zm-1.376-1.376a.973.973,0,1,1,1.376,1.376Zm-269.9,91.9h1.945l.033,3.188.1,3.171.165,3.154.23,3.137L33.1,197.3l.358,3.1.421,3.079.483,3.059.545,3.038.606,3.016.666,2.994.726,2.971.785,2.948.843,2.924.9,2.9.957,2.873,1.014,2.847,1.07,2.82,1.124,2.793,1.179,2.764,1.232,2.735,1.286,2.706,1.338,2.675,1.39,2.645,1.44,2.613,1.491,2.581,1.541,2.548,1.59,2.515,1.638,2.48,1.686,2.445,1.733,2.41,1.779,2.374-1.545,1.182-1.8-2.4-1.756-2.441-1.708-2.477L54.452,263.5l-1.611-2.547-1.561-2.581-1.511-2.615-1.459-2.648L46.9,250.426l-1.356-2.71-1.3-2.741L43,242.2,41.8,239.4l-1.14-2.829-1.084-2.857-1.027-2.884-.97-2.911-.913-2.937-.854-2.962-.8-2.986-.735-3.01-.675-3.034-.614-3.056-.552-3.078-.49-3.1-.426-3.119-.363-3.139-.3-3.159-.233-3.177-.167-3.195-.1-3.212-.034-3.228h0Zm0,0a.972.972,0,1,1,1.945,0H30.329Zm32.509-91.9-1.376,1.376,1.46-.1-1.779,2.374L59.41,95.7l-1.686,2.445-1.638,2.48-1.59,2.515-1.541,2.548-1.491,2.581-1.441,2.613-1.39,2.645L47.295,116.2l-1.286,2.705-1.232,2.735L43.6,124.406,42.472,127.2l-1.07,2.82-1.014,2.847-.958,2.873-.9,2.9-.843,2.924-.785,2.948-.726,2.971-.666,2.995-.606,3.016-.545,3.038-.483,3.059-.421,3.079-.358,3.1-.294,3.118-.23,3.137-.165,3.154-.1,3.171-.033,3.188H30.329l.034-3.228.1-3.212.167-3.195.233-3.177.3-3.159.363-3.139.426-3.119.49-3.1.552-3.078.614-3.056.675-3.033.735-3.01.8-2.986.854-2.962.913-2.936.971-2.911,1.027-2.884,1.084-2.857,1.14-2.829,1.194-2.8,1.249-2.771,1.3-2.741,1.356-2.711,1.408-2.679,1.46-2.647,1.511-2.614,1.561-2.582,1.611-2.547,1.659-2.513,1.708-2.477,1.756-2.441,1.8-2.4,1.46-.1Zm-1.46.1a.973.973,0,1,1,1.545,1.182l-1.545-1.182Zm2.86,4.055-2.776-2.776,1.376-1.376,2.776,2.776.087,1.276-1.462.1Zm1.376-1.376a.973.973,0,0,1-1.376,1.376Zm-29.45,89.121H34.219l.033-3.128.1-3.112.161-3.1.224-3.079.287-3.06.35-3.042.411-3.023.472-3,.532-2.983.591-2.962.651-2.94.708-2.918.767-2.9.823-2.871.879-2.847.936-2.822.99-2.8,1.045-2.77,1.1-2.744,1.151-2.716,1.2-2.688,1.256-2.659,1.307-2.63,1.358-2.6,1.407-2.569,1.456-2.537,1.505-2.505,1.553-2.473,1.6-2.439,1.647-2.406,1.693-2.371,1.738-2.336L65.7,93.687l-1.715,2.305-1.671,2.34-1.625,2.374-1.58,2.407-1.532,2.44-1.485,2.473-1.437,2.5-1.389,2.535-1.34,2.565-1.29,2.595L49.4,120.85,48.21,123.5l-1.136,2.68-1.084,2.707-1.031,2.734-.977,2.759-.923,2.784-.868,2.809-.812,2.833-.756,2.856-.7,2.879-.641,2.9-.584,2.923-.525,2.943-.466,2.963-.405,2.983-.345,3-.284,3.02-.221,3.038-.159,3.055-.1,3.071-.032,3.087h0Zm0,0a.972.972,0,0,1-1.945,0Zm29.45,89.12-1.376-1.376-.087,1.276-1.738-2.336-1.693-2.371-1.647-2.406L57.473,261l-1.553-2.473-1.505-2.505-1.456-2.537-1.407-2.569-1.358-2.6-1.307-2.63-1.256-2.659-1.2-2.688-1.151-2.716-1.1-2.744-1.045-2.77-.99-2.8-.936-2.822-.88-2.847-.823-2.871-.767-2.9-.708-2.918-.65-2.94-.591-2.962-.532-2.983-.472-3-.411-3.023-.35-3.042-.287-3.06-.224-3.079-.161-3.1-.1-3.112-.033-3.128h1.945l.032,3.087.1,3.071.159,3.055.221,3.038.284,3.02.345,3,.405,2.983.466,2.963.525,2.943.584,2.923.641,2.9.7,2.879.756,2.856.813,2.833.868,2.809.923,2.784.977,2.759,1.031,2.734,1.084,2.707,1.136,2.68,1.188,2.652,1.239,2.624,1.29,2.595L53.266,250l1.389,2.535,1.437,2.5,1.485,2.473,1.532,2.44,1.58,2.407,1.625,2.374,1.671,2.34,1.715,2.305-.087,1.276Zm.087-1.276a.973.973,0,1,1-1.549,1.177l1.549-1.176Zm-4.238,2.677,2.776-2.776,1.376,1.376-2.776,2.776-1.46-.1.085-1.279Zm1.376,1.376a.973.973,0,1,1-1.376-1.376ZM250.9,85.366l-1.376-1.376.125,1.48-1.815-1.264-1.84-1.231-1.864-1.2-1.888-1.162-1.911-1.128L238.4,78.4l-1.956-1.057-1.978-1.021-2-.984-2.021-.947-2.042-.91L226.34,72.6l-2.082-.834-2.1-.8-2.12-.756L217.9,69.5l-2.156-.676-2.174-.636-2.191-.6-2.208-.554-2.224-.512-2.24-.47-2.255-.427-2.27-.384-2.285-.34-2.3-.3-2.312-.252-2.326-.207-2.339-.162-2.351-.116-2.363-.07-2.374-.023V61.835l2.413.024,2.4.071,2.389.118,2.378.164,2.364.211,2.351.256,2.337.3,2.323.346,2.308.39,2.293.434,2.277.478,2.261.521,2.244.563,2.227.605,2.21.646,2.192.688,2.174.728,2.155.769,2.136.809,2.117.848,2.1.887,2.075.925,2.054.963,2.033,1,2.011,1.038,1.989,1.074,1.966,1.111,1.943,1.147,1.919,1.182,1.9,1.217,1.87,1.251,1.845,1.285.125,1.48Zm-.125-1.48a.973.973,0,1,1-1.127,1.585Zm-4.043,2.9,2.792-2.792,1.376,1.376-2.792,2.792-1.246.108-.129-1.484Zm1.376,1.376a.973.973,0,0,1-1.376-1.376ZM181.532,67.67V65.725h0l2.312.023,2.3.067,2.29.112,2.278.157,2.266.2,2.253.243,2.24.286,2.227.329,2.212.371,2.2.412,2.183.453,2.168.494,2.153.535,2.136.575,2.12.614,2.1.653,2.086.692,2.068.73,2.05.768,2.031.806,2.012.843,1.993.879,1.973.915,1.952.951,1.932.986,1.911,1.021,1.889,1.056,1.867,1.09,1.845,1.123,1.822,1.156,1.8,1.189,1.775,1.221-1.118,1.592-1.745-1.2L243.348,85.9l-1.792-1.137-1.814-1.1-1.836-1.071-1.858-1.038-1.879-1-1.9-.97-1.919-.935-1.94-.9-1.959-.864-1.979-.828-2-.792-2.015-.755-2.033-.717-2.05-.68-2.068-.642-2.084-.6-2.1-.565-2.116-.526-2.131-.486-2.147-.446-2.161-.405-2.175-.365-2.189-.323-2.2-.281-2.215-.239-2.228-.2-2.24-.153-2.251-.111-2.263-.067-2.274-.022h0Zm0,0a.972.972,0,1,1,0-1.945V67.67ZM114.956,88.158l1.375-1.376-1.246-.108,1.775-1.221,1.8-1.189,1.822-1.156,1.845-1.123,1.868-1.089,1.889-1.056,1.911-1.021,1.932-.986,1.953-.95,1.973-.915,1.993-.879,2.012-.843,2.031-.805,2.05-.768,2.068-.73,2.086-.692,2.1-.653,2.12-.614,2.137-.575,2.152-.535,2.168-.494,2.183-.453,2.2-.412,2.212-.371,2.227-.329,2.24-.286,2.253-.243,2.266-.2,2.278-.157,2.29-.112,2.3-.067,2.312-.023v1.945l-2.274.022L177,67.758l-2.252.111-2.24.153-2.228.2-2.215.239-2.2.281-2.189.323-2.175.365-2.161.405-2.147.446-2.131.486-2.117.526-2.1.565-2.084.6-2.068.642-2.05.68L142.6,74.5l-2.015.755-2,.792-1.978.828-1.959.865-1.94.9-1.919.935-1.9.97-1.879,1-1.858,1.038-1.836,1.071-1.814,1.1L119.717,85.9l-1.768,1.169-1.746,1.2-1.246-.108Zm1.246.108a.972.972,0,1,1-1.117-1.592Zm-2.663-4.275,2.792,2.791-1.375,1.376-2.792-2.791.124-1.48,1.251.105Zm-1.375,1.376a.972.972,0,1,1,1.375-1.376Zm69.368-23.531V63.78h0l-2.374.023-2.363.07-2.351.116-2.339.162-2.326.207-2.312.252-2.3.3-2.285.34-2.27.384-2.255.427-2.24.47-2.224.512-2.208.554-2.191.6-2.174.636-2.156.676-2.138.716-2.12.756-2.1.8-2.082.834-2.061.872-2.042.91-2.02.947-2,.984-1.978,1.021L124.666,78.4l-1.933,1.093-1.911,1.128-1.888,1.162-1.864,1.2-1.84,1.231-1.815,1.264-1.127-1.585,1.845-1.285L116,81.35l1.895-1.216,1.919-1.182,1.942-1.146,1.966-1.111,1.989-1.075,2.011-1.038,2.033-1,2.054-.963,2.075-.925,2.1-.887,2.117-.848,2.136-.809,2.155-.769,2.174-.728,2.192-.688,2.21-.647,2.227-.605,2.244-.563,2.261-.52,2.277-.478,2.293-.434,2.308-.39,2.322-.347,2.337-.3,2.351-.256,2.364-.211,2.377-.164,2.389-.118,2.4-.071,2.413-.024h0Zm0,0a.972.972,0,0,1,0,1.945V61.835Zm119.7,119.7h-1.945l-.023-2.374-.07-2.363-.116-2.351-.162-2.339-.207-2.326-.252-2.312-.3-2.3-.34-2.285-.384-2.27L297,158.358l-.47-2.24-.512-2.224-.554-2.208-.6-2.191-.636-2.174-.676-2.156-.716-2.138-.756-2.12-.8-2.1-.834-2.082-.872-2.061-.91-2.042-.947-2.021-.984-2-1.021-1.978-1.057-1.956-1.093-1.934-1.128-1.911-1.162-1.888-1.2-1.864-1.231-1.84-1.264-1.815,1.585-1.127,1.285,1.846,1.251,1.87,1.217,1.9,1.182,1.919,1.147,1.943,1.111,1.966,1.074,1.989,1.038,2.011,1,2.033.963,2.054.925,2.075.887,2.1.848,2.116.809,2.136.769,2.155.728,2.174.688,2.192.646,2.21.605,2.227.563,2.244.521,2.261.478,2.277.434,2.293.39,2.308.346,2.323.3,2.337.256,2.351.211,2.364.164,2.378.118,2.389.071,2.4.024,2.413h0Zm0,0a.972.972,0,1,1-1.945,0h1.945ZM277.7,250.9l1.376-1.376-1.48.125,1.264-1.815,1.231-1.84,1.2-1.864,1.162-1.888,1.128-1.911,1.093-1.934,1.057-1.956,1.021-1.978.984-2,.947-2.021.91-2.042.872-2.062.834-2.081.8-2.1.756-2.12.716-2.138.676-2.156.636-2.174.6-2.191.554-2.208.512-2.224.47-2.24.427-2.255.384-2.27.34-2.285.3-2.3.252-2.312.207-2.326.162-2.338.116-2.351.07-2.363.023-2.374h1.945l-.024,2.413-.071,2.4-.118,2.389-.165,2.377-.211,2.364-.256,2.351-.3,2.337-.346,2.323-.39,2.308-.434,2.293-.478,2.277-.521,2.261-.563,2.244-.605,2.227-.646,2.21-.688,2.192-.728,2.174-.769,2.155-.809,2.136-.848,2.116-.887,2.1-.925,2.075-.963,2.055-1,2.033-1.038,2.011-1.075,1.988-1.11,1.966-1.147,1.942-1.182,1.919-1.216,1.895-1.251,1.87-1.285,1.845-1.48.125Zm1.48-.124a.973.973,0,1,1-1.585-1.127Zm-2.9-4.043,2.791,2.792L277.7,250.9l-2.791-2.792-.108-1.246,1.484-.129Zm-1.376,1.376a.973.973,0,1,1,1.376-1.376Zm20.488-66.576h1.945l-.023,2.312-.067,2.3-.113,2.29-.156,2.278-.2,2.266-.243,2.253-.286,2.24-.329,2.226-.371,2.212-.412,2.2-.453,2.183-.494,2.168-.535,2.152-.575,2.137-.614,2.12-.653,2.1-.692,2.086-.73,2.068-.768,2.05-.805,2.031-.843,2.012-.879,1.993-.915,1.973-.951,1.953-.986,1.932-1.021,1.911-1.056,1.889-1.089,1.868-1.123,1.845-1.156,1.822-1.189,1.8-1.221,1.775-1.592-1.117,1.2-1.746,1.169-1.769,1.137-1.792,1.1-1.814,1.071-1.836,1.038-1.858,1-1.879.97-1.9.935-1.919.9-1.94.865-1.959.828-1.978.792-2,.755-2.015.718-2.033.68-2.05.642-2.068.6-2.084.565-2.1.526-2.116.486-2.131.446-2.147.405-2.161L294,199.4l.323-2.189.281-2.2.239-2.215.2-2.228.154-2.24.11-2.251.067-2.263.022-2.274h0Zm0,0a.972.972,0,1,1,1.945,0h-1.945Zm-20.489-66.577,1.376,1.376.108-1.246,1.221,1.775,1.189,1.8,1.156,1.822,1.123,1.845,1.09,1.867,1.056,1.889,1.021,1.911.986,1.932.951,1.953.915,1.973.879,1.993.843,2.012.805,2.032.768,2.05.73,2.068.692,2.086.653,2.1.614,2.12.575,2.136.535,2.153.494,2.168.453,2.183.412,2.2.371,2.212.329,2.227.286,2.24.243,2.253.2,2.265.156,2.278.113,2.29.067,2.3.023,2.312h-1.945l-.022-2.274L295.306,177l-.11-2.251-.154-2.24-.2-2.228-.239-2.216-.281-2.2L294,163.669l-.365-2.175-.405-2.161-.446-2.147-.486-2.131-.526-2.116-.565-2.1-.6-2.084-.642-2.068-.68-2.05-.717-2.033-.755-2.015-.792-2-.828-1.978-.864-1.959-.9-1.939-.935-1.92-.97-1.9-1-1.879-1.038-1.858-1.071-1.836-1.1-1.814-1.137-1.792L276,117.948l-1.2-1.746.108-1.246ZM274.8,116.2a.973.973,0,1,1,1.592-1.118Zm4.275-2.663-2.792,2.792-1.376-1.376,2.792-2.792,1.48.125-.105,1.251Zm-1.376-1.376a.973.973,0,0,1,1.376,1.376ZM61.834,181.532h1.945l.023,2.374.07,2.363.116,2.351.162,2.338.207,2.326.252,2.313.3,2.3.34,2.285.384,2.27.427,2.255.47,2.24.512,2.224.554,2.208.6,2.191.636,2.174L69.5,217.9l.717,2.138.756,2.12.8,2.1.834,2.082.872,2.062.91,2.041.948,2.021.984,2,1.021,1.978L78.4,238.4l1.093,1.934,1.128,1.911,1.162,1.888,1.2,1.864,1.231,1.84,1.264,1.815-1.585,1.127L82.6,248.931l-1.251-1.87-1.217-1.9-1.182-1.919L77.8,241.305l-1.111-1.966-1.074-1.988-1.038-2.011-1-2.033-.963-2.054-.925-2.075-.887-2.1-.848-2.116-.809-2.136-.768-2.155-.729-2.174-.688-2.192-.647-2.21-.605-2.227-.563-2.244-.52-2.261-.478-2.277-.434-2.293-.39-2.308-.347-2.322-.3-2.337-.256-2.351-.211-2.364-.164-2.377-.118-2.389-.071-2.4-.024-2.413h0Zm0,0a.972.972,0,1,1,1.945,0H61.834Zm23.531-69.369-1.376,1.376,1.48-.125-1.264,1.815-1.231,1.84-1.2,1.864-1.162,1.888-1.128,1.911L78.4,124.666l-1.057,1.956L76.318,128.6l-.984,2-.948,2.021-.91,2.042-.872,2.061-.834,2.082-.8,2.1-.756,2.12-.717,2.138-.676,2.156-.636,2.174-.6,2.191-.554,2.208-.512,2.224-.47,2.24-.427,2.255-.384,2.27-.34,2.285-.3,2.3-.252,2.312-.207,2.326-.162,2.339-.116,2.351-.07,2.363-.023,2.374H61.834l.024-2.413.071-2.4.118-2.389.164-2.377.211-2.364.256-2.351.3-2.337.347-2.323.39-2.308.434-2.293.478-2.277.52-2.261.563-2.244.605-2.227.647-2.21.688-2.192.729-2.174.768-2.155.809-2.136.848-2.117.887-2.1.925-2.075.963-2.055,1-2.033,1.038-2.011,1.074-1.989L77.8,121.76l1.147-1.943,1.182-1.919,1.217-1.9,1.251-1.87,1.285-1.846,1.48-.125Zm-1.48.125a.973.973,0,1,1,1.585,1.127Zm2.9,4.043-2.792-2.792,1.376-1.376,2.792,2.792.108,1.246-1.484.129Zm1.376-1.376a.973.973,0,0,1-1.376,1.376ZM67.669,181.532H65.724l.023-2.312.067-2.3.113-2.29.156-2.278.2-2.266.243-2.253.286-2.24.329-2.226.371-2.212.413-2.2.453-2.183.495-2.168.535-2.152.575-2.137.614-2.12.653-2.1.692-2.086.73-2.068.768-2.05.805-2.031.843-2.012.879-1.993.915-1.973.951-1.952.986-1.932,1.021-1.911,1.056-1.889,1.089-1.868,1.123-1.845,1.156-1.822,1.189-1.8,1.221-1.775,1.592,1.117-1.2,1.746L85.9,119.716l-1.137,1.792-1.1,1.814-1.071,1.836-1.038,1.858-1,1.879-.97,1.9-.935,1.919-.9,1.94-.864,1.959-.828,1.978-.792,2L74.5,142.6l-.718,2.033-.68,2.05-.642,2.067-.6,2.084-.565,2.1-.526,2.117-.486,2.131-.446,2.147-.405,2.161-.365,2.175-.323,2.189-.281,2.2-.239,2.215-.2,2.228-.154,2.24-.11,2.251-.067,2.263-.022,2.274h0Zm0,0a.972.972,0,1,1-1.945,0h1.945Zm20.488,66.577-1.376-1.376-.108,1.246L85.452,246.2l-1.189-1.8-1.156-1.822-1.123-1.845-1.09-1.867-1.056-1.889-1.021-1.911-.986-1.932-.951-1.952-.915-1.973-.879-1.993-.843-2.012-.806-2.032-.768-2.05-.731-2.068-.692-2.086-.653-2.1-.614-2.12-.575-2.137-.535-2.152-.494-2.168-.453-2.183-.412-2.2-.371-2.212-.329-2.226-.286-2.24-.243-2.253-.2-2.266-.156-2.278-.113-2.29-.067-2.3-.023-2.312h1.945l.022,2.274.067,2.263.11,2.251.154,2.24.2,2.228L68.457,195l.281,2.2.323,2.189.365,2.175.405,2.161.446,2.147.486,2.131.526,2.116.565,2.1.6,2.084.642,2.068.68,2.05.718,2.033.755,2.015.792,2,.828,1.978.864,1.959.9,1.939.935,1.92.969,1.9,1,1.879,1.037,1.858,1.071,1.836,1.1,1.814,1.137,1.792,1.169,1.768,1.2,1.746-.108,1.246Zm.108-1.246a.972.972,0,1,1-1.592,1.117Zm-4.275,2.662,2.792-2.791,1.376,1.376L85.366,250.9l-1.48-.125.105-1.251Zm1.376,1.376a.973.973,0,0,1-1.376-1.376Z" transform="translate(0.009 0.01)" fill="#2b2a29"/>
  </g>
  <path id="Path_26215" data-name="Path 26215" d="M2617.771,5392.344a40.394,40.394,0,0,1-2.117-4.015,13.709,13.709,0,0,1-.8-5.26c.219-4.746,1.826-5.55,3.286-8.4-1.534-.729-2.775-1.825-4.456-2.848a69.26,69.26,0,0,0-14.68-6.864,72.394,72.394,0,0,0-24.757-3.8c-10.371-.073-21.326,3.141-29.433,7.011-6.427,3.069-17.455,9.859-21.4,15.191,1.461,3.358,14.388,11.685,18.623,13.948a72.665,72.665,0,0,0,54.045,5.552C2603.31,5400.743,2611.855,5396.873,2617.771,5392.344Z" transform="translate(-2446.563 -5197.859)" fill="#056137" fill-rule="evenodd"/>
  <path id="Path_26216" data-name="Path 26216" d="M6295.76,5375.945a38.723,38.723,0,0,1,2.336,4.015c2.994,7.3-1.459,11.979-2.118,13.8,3.36,1.828,4.821,3.361,10.006,5.844a70.79,70.79,0,0,0,40.971,6.866,72.065,72.065,0,0,0,24.687-7.816c5.475-2.775,16.212-10.006,18.622-13.948-3.067-4.6-15.336-12.344-21.252-15.119-6.134-2.923-21.69-8.182-29.579-6.939-5.77-1.242-19.72,1.827-24.832,3.653A76.066,76.066,0,0,0,6295.76,5375.945Z" transform="translate(-6104.03 -5199.058)" fill="#056137" fill-rule="evenodd"/>
  <path id="Path_26217" data-name="Path 26217" d="M4527.2,6705.425c-6.135-2.482-10.737-5.841-18.771-5.841-17.455,0-25.927,14.751-10.15,21.472,10.15,4.38,19.5.948,28.555-3.727,2.848-1.459,5.257-3.067,7.888-4.455a36.764,36.764,0,0,1,4.966,2.7c1.68.95,3.139,1.827,4.894,2.63a60.268,60.268,0,0,0,11.1,4.236c8.838,2.118,19.209-1.168,22.714-6.719,2.7-4.236,1.022-7.959-1.535-10.662-2.336-2.412-6.134-4.164-10.369-4.967-12.343-2.337-20.232,4.527-24.029,5.332.657-.657,2.337-2.85,3.141-3.8,3.213-3.724,15.264-17.383,16.725-20.157,2.628-4.747-.657-7.451-5.332-7.451h-44.112c-4.747,0-7.815,2.484-5.479,7.3,1.244,2.482,4.749,6.207,6.5,8.252C4516.6,6692.936,4525.3,6702.576,4527.2,6705.425Z" transform="translate(-4353.213 -6470.771)" fill="#e14124" fill-rule="evenodd"/>
  <path id="Path_26218" data-name="Path 26218" d="M6019.823,3684.3l-.219.219-3.87,3.8c-7.525,7.376-17.821,27.826-17.528,36.955a13.011,13.011,0,0,1,5.112,1.459c1.68.878,2.7,2.265,3.87,2.922a80.59,80.59,0,0,1,18.918-9.64c5.184-1.825,19.135-4.894,24.831-3.651.292-.658,5.841-7.231,7.813-10.225,7.376-11.248,13.145-27.753,12.342-41.849a75.324,75.324,0,0,0-29.8,5.989,67.315,67.315,0,0,0-11.611,6.208C6026.836,3678.24,6021.65,3681.964,6019.823,3684.3Z" transform="translate(-5815.532 -3552.699)" fill="#018d41" fill-rule="evenodd"/>
  <path id="Path_26219" data-name="Path 26219" d="M3541.447,3713a69.03,69.03,0,0,1,24.758,3.8,73.162,73.162,0,0,1,14.681,6.865c1.679,1.022,2.92,2.045,4.454,2.848,2.483-2.044,4.09-3.943,8.91-4.454-.146-6.282-5.184-18.258-7.814-23.006a78.692,78.692,0,0,0-6.135-9.494c-2.409-3.067-4.82-5.551-7.23-8.179-4.09-3.288-4.674-4.382-10.079-7.961-11.685-7.6-27.168-12.781-41.921-12.344.8,5.771-.146,7.523,1.753,16.143,2.556,11.684,8.472,24.683,16.506,33.229A21.635,21.635,0,0,1,3541.447,3713Z" transform="translate(-3413.839 -3549.549)" fill="#018d41" fill-rule="evenodd"/>
  <path id="Path_26220" data-name="Path 26220" d="M5232.158,2682.287c-.658,3.213-1.754,6.353-2.41,9.859-.73,3.871-.73,7.157-1.169,11.1,2.412,2.629,4.893,5.112,7.23,8.18a66.18,66.18,0,0,1,6.135,9.494c2.557,4.746,7.67,16.8,7.815,23.006h2.265c-.292-9.13,10.006-29.58,17.529-36.956l3.87-3.8c.073-.073.145-.146.22-.22-.365-.219-.513.365-.658-1.9-.73-10.809-2.337-17.236-6.938-27.46-2.484-5.624-11.173-19.135-15.191-21.325-5.112,3.8-11.9,14.68-15.189,21.4C5234.423,2676.372,5233.326,2680.169,5232.158,2682.287Z" transform="translate(-5069.35 -2571.498)" fill="#95be32" fill-rule="evenodd"/>
  <path id="Path_26221" data-name="Path 26221" d="M5528.892,5668.772c-1.46,2.847-3.066,3.652-3.285,8.4a13.925,13.925,0,0,0,.8,5.257c.659,1.681,1.461,2.557,2.12,4.018,1.241.8,2.118,1.972,4.016,3.067a13.475,13.475,0,0,0,12.271.292c1.971-.95,2.994-2.263,4.454-3.213.658-1.751,5.112-6.427,2.118-13.8a38.976,38.976,0,0,0-2.337-4.017c-1.168-.658-2.191-2.045-3.871-2.921a13,13,0,0,0-5.111-1.461H5537.8C5532.982,5664.9,5531.376,5666.727,5528.892,5668.772Z" transform="translate(-5357.32 -5491.888)" fill="#e14124" fill-rule="evenodd"/>
  <path id="Path_26222" data-name="Path 26222" d="M3712.854,8493.957h2.8l-.123-.413c-.334-1.133-.609-2.094-.821-2.891s-.343-1.31-.391-1.541l-.069-.345a49.23,49.23,0,0,1-1.28,4.776l-.121.412Zm4.152,4.53-.709-2.385h-4.084l-.708,2.385h-2.785l3.891-11.658h3.358l3.892,11.658Zm6.731-.136-3.392-8.633h2.752l.951,2.733c.243.7.44,1.311.6,1.817s.251.843.286,1l.052.24c.127-.457.439-1.479.934-3.06l.865-2.733h2.6l-3.166,8.513q-1.367,3.683-4.169,3.686a5.115,5.115,0,0,1-.969-.087v-2.008a2.378,2.378,0,0,0,.588.069,2.158,2.158,0,0,0,2.076-1.538Zm12.2-8.633h2.525v8.769h-2.525v-1.4a2.661,2.661,0,0,1-2.663,1.469,2.835,2.835,0,0,1-2.1-.754,3.009,3.009,0,0,1-.753-2.222v-5.864h2.526v5.294q0,1.54,1.349,1.538c1.1,0,1.644-.729,1.644-2.2Zm10.138.261v2.161a4.157,4.157,0,0,0-2.145-.534,1.144,1.144,0,0,0-.692.179.559.559,0,0,0-.242.461.54.54,0,0,0,.087.294.834.834,0,0,0,.286.259c.132.08.258.152.381.215s.287.142.5.233.383.174.51.244a4.447,4.447,0,0,1,1.281.958,2.019,2.019,0,0,1,.484,1.393,2.367,2.367,0,0,1-.934,2.008,3.983,3.983,0,0,1-2.474.709,5.911,5.911,0,0,1-2.665-.536v-2.247a4.354,4.354,0,0,0,2.526.83q.953,0,.951-.605a.536.536,0,0,0-.087-.293.786.786,0,0,0-.294-.259,3.848,3.848,0,0,0-.381-.2c-.115-.053-.283-.127-.5-.219s-.387-.164-.5-.223a2.665,2.665,0,0,1-1.747-2.492,2.32,2.32,0,0,1,.978-1.99,4.039,4.039,0,0,1,2.431-.708A6.034,6.034,0,0,1,3746.071,8489.979Zm4.533-3.72v4.947a2.582,2.582,0,0,1,2.63-1.574,2.8,2.8,0,0,1,2.084.813,3.359,3.359,0,0,1,.806,2.456v5.586H3753.6V8493.3a1.748,1.748,0,0,0-.381-1.193,1.261,1.261,0,0,0-.986-.43,1.639,1.639,0,0,0-.493.075,2.028,2.028,0,0,0-.51.276,1.4,1.4,0,0,0-.451.678,3.364,3.364,0,0,0-.173,1.147v4.635h-2.526V8486.26Zm10.035,3.459v1.368a2.545,2.545,0,0,1,2.473-1.454,1.742,1.742,0,0,0,3.443.442,2.935,2.935,0,0,1,1.625-.442,2.64,2.64,0,0,1,2.051.821,3.465,3.465,0,0,1,.752,2.414v5.622h-2.526v-5.205a2.072,2.072,0,0,0-.293-1.18.967.967,0,0,0-.849-.43,1.417,1.417,0,0,0-1.046.474,2.453,2.453,0,0,0-.458,1.706v4.635h-2.526v-5.205a2.068,2.068,0,0,0-.294-1.18.967.967,0,0,0-.848-.43,1.413,1.413,0,0,0-1.045.474,2.446,2.446,0,0,0-.46,1.706v4.635h-2.525v-8.771h2.525Zm16.677,5.176h-.814a1.541,1.541,0,0,0-.986.275.862.862,0,0,0-.346.71q0,.88,1.02.88a1.052,1.052,0,0,0,.832-.328,1.3,1.3,0,0,0,.294-.9Zm-4.1-2.477v-2.267a6.185,6.185,0,0,1,2.993-.59,4.148,4.148,0,0,1,2.785.8,3.161,3.161,0,0,1,.917,2.5v5.62h-2.475v-1.068a2.2,2.2,0,0,1-2.179,1.124,2.682,2.682,0,0,1-2-.728,2.479,2.479,0,0,1-.719-1.815,2.319,2.319,0,0,1,.926-1.964,4.491,4.491,0,0,1,2.743-.7h1.107v-.6q0-1.107-1.471-1.107A4.687,4.687,0,0,0,3773.216,8492.418Zm11.212-2.7v1.488a2.553,2.553,0,0,1,1.011-1.148,3.032,3.032,0,0,1,1.635-.426,2.778,2.778,0,0,1,2.11.8,3.313,3.313,0,0,1,.761,2.362v5.7h-2.526v-5.23a1.726,1.726,0,0,0-.363-1.184,1.3,1.3,0,0,0-1.021-.4,1.437,1.437,0,0,0-1.151.543,2.5,2.5,0,0,0-.457,1.637v4.639H3781.9v-8.775Zm14.584,6.646h1.4q1.97,0,1.972-1.352t-1.954-1.349h-1.419v2.7Zm0-7.406v2.613H3800a2.685,2.685,0,0,0,1.566-.381,1.183,1.183,0,0,0,.527-1q0-1.228-1.66-1.229Zm-2.664-2.128h4.531a4.208,4.208,0,0,1,2.925.908,2.974,2.974,0,0,1,1,2.309,2.734,2.734,0,0,1-.486,1.609,2.36,2.36,0,0,1-1.262.934,2.6,2.6,0,0,1,2.024,2.733,2.919,2.919,0,0,1-1,2.274,3.9,3.9,0,0,1-2.707.89h-5.034Zm12.906-.57v4.947a2.581,2.581,0,0,1,2.629-1.574,2.807,2.807,0,0,1,2.086.813,3.367,3.367,0,0,1,.8,2.456v5.586h-2.526V8493.3a1.748,1.748,0,0,0-.379-1.193,1.262,1.262,0,0,0-.987-.43,1.639,1.639,0,0,0-.492.075,2.034,2.034,0,0,0-.511.276,1.4,1.4,0,0,0-.449.678,3.357,3.357,0,0,0-.173,1.147v4.635h-2.526V8486.26Zm11.85,8.635h-.812a1.543,1.543,0,0,0-.987.275.864.864,0,0,0-.345.71c0,.587.342.88,1.021.88a1.054,1.054,0,0,0,.831-.328,1.307,1.307,0,0,0,.292-.9Zm-4.1-2.477v-2.267a6.184,6.184,0,0,1,2.994-.59,4.147,4.147,0,0,1,2.785.8,3.159,3.159,0,0,1,.917,2.5v5.62h-2.474v-1.068a2.2,2.2,0,0,1-2.18,1.124,2.683,2.683,0,0,1-2-.728,2.483,2.483,0,0,1-.717-1.815,2.316,2.316,0,0,1,.926-1.964,4.488,4.488,0,0,1,2.742-.7h1.105v-.6q0-1.107-1.47-1.107A4.689,4.689,0,0,0,3817,8492.418Zm11.194-2.7v1.628a2.507,2.507,0,0,1,.8-1.22,2.008,2.008,0,0,1,1.306-.458,2.537,2.537,0,0,1,.657.068v2.388a2.229,2.229,0,0,0-.951-.188,1.626,1.626,0,0,0-1.316.6,2.374,2.374,0,0,0-.5,1.581v4.381h-2.526l.017-8.775Zm8.235,5.176h-.813a1.532,1.532,0,0,0-.987.276.863.863,0,0,0-.346.709q0,.88,1.021.88a1.054,1.054,0,0,0,.831-.328,1.3,1.3,0,0,0,.293-.9Zm-4.1-2.477v-2.266a6.166,6.166,0,0,1,2.994-.591,4.149,4.149,0,0,1,2.784.8,3.163,3.163,0,0,1,.916,2.5v5.622h-2.473v-1.068a2.2,2.2,0,0,1-2.181,1.121,2.682,2.682,0,0,1-2-.728,2.481,2.481,0,0,1-.719-1.815,2.315,2.315,0,0,1,.927-1.964,4.487,4.487,0,0,1,2.742-.7h1.106v-.6c0-.735-.49-1.107-1.469-1.107A4.687,4.687,0,0,0,3832.332,8492.418Zm11.609-.847v4.029a.9.9,0,0,0,.268.709,1.012,1.012,0,0,0,.7.241,2.205,2.205,0,0,0,1.228-.344v2.093a4.4,4.4,0,0,1-1.729.275,2.645,2.645,0,0,1-2.994-2.992v-4.012h-1.262v-1.853h1.262v-2.074h2.526v2.074h2.041v1.853Z" transform="translate(-3595.775 -8227.82)" fill="#2b2a29"/>
  <path id="Path_26223" data-name="Path 26223" d="M2640.947,9081.259h2.219a5.7,5.7,0,0,0,4.548-1.84,7.666,7.666,0,0,0,1.6-5.2,6.431,6.431,0,0,0-1.616-4.579,5.945,5.945,0,0,0-4.564-1.726h-2.187Zm-5.006-17.368h7.353a10.9,10.9,0,0,1,7.892,2.962,9.821,9.821,0,0,1,3.074,7.369,10.761,10.761,0,0,1-3.027,8.083,11,11,0,0,1-8,2.947h-7.289Zm21.647,21.361v-16.066h4.627v16.066Zm.412-18.829a2.673,2.673,0,1,1,1.9.795A2.583,2.583,0,0,1,2658,9066.423Zm15.308,14.611a2.738,2.738,0,0,0,2.331-1.124,4.4,4.4,0,0,0,.839-2.708q0-4.315-3.137-4.311a2.569,2.569,0,0,0-2.187,1.076,4.949,4.949,0,0,0-.793,2.983,5.142,5.142,0,0,0,.76,3.039A2.54,2.54,0,0,0,2673.306,9081.034Zm3.17-11.849h4.6V9083.7a7.181,7.181,0,0,1-2.314,5.816,8.694,8.694,0,0,1-5.8,1.947,13.666,13.666,0,0,1-5.927-1.2v-4.723a8.461,8.461,0,0,0,5.452,1.773,4.36,4.36,0,0,0,3.042-.886,3.65,3.65,0,0,0,.951-2.791v-1.077a4.9,4.9,0,0,1-4.437,2.158,6.18,6.18,0,0,1-4.581-1.967q-1.916-1.967-1.917-5.831a8.549,8.549,0,0,1,1.854-5.656,6.01,6.01,0,0,1,4.865-2.235,4.562,4.562,0,0,1,4.215,2.281Zm8.4,16.066v-16.066h4.627v16.066Zm.412-18.829a2.672,2.672,0,1,1,1.9.795A2.583,2.583,0,0,1,2685.288,9066.423Zm13.533,6.151v7.386a1.667,1.667,0,0,0,.491,1.3,1.853,1.853,0,0,0,1.284.444,4.074,4.074,0,0,0,2.249-.633v3.835a8.2,8.2,0,0,1-3.169.5q-5.484,0-5.483-5.48v-7.354h-2.314v-3.389h2.314v-3.807h4.626v3.807h3.741v3.389Zm14.834,6.086h-1.489a2.825,2.825,0,0,0-1.807.507,1.592,1.592,0,0,0-.635,1.3q0,1.614,1.871,1.615a1.923,1.923,0,0,0,1.521-.6,2.371,2.371,0,0,0,.539-1.646Zm-7.511-4.533v-4.151a11.286,11.286,0,0,1,5.482-1.077,7.576,7.576,0,0,1,5.1,1.472,5.783,5.783,0,0,1,1.679,4.582v10.3h-4.532v-1.966q-1.014,2.06-3.993,2.059a4.909,4.909,0,0,1-3.661-1.328,4.55,4.55,0,0,1-1.315-3.33,4.255,4.255,0,0,1,1.695-3.6,8.248,8.248,0,0,1,5.024-1.281h2.028v-1.11c0-1.354-.9-2.027-2.693-2.027A8.606,8.606,0,0,0,2706.143,9074.127Zm16.069,11.125v-22.408h4.627v22.408Zm16.2,0,1.839-21.361h5.355l2.979,7.731q.761,1.937,1.3,3.55t.7,2.28l.158.636a56.735,56.735,0,0,1,2.218-6.466l3.011-7.731h5.357l2.218,21.361h-4.881l-.792-8.273-.412-6.245q-.824,2.382-2.281,6.245l-3.011,8.052h-2.884l-2.98-8.052c-.485-1.312-.9-2.482-1.236-3.519s-.56-1.754-.666-2.155l-.158-.571q0,2.253-.285,6.245l-.665,8.273Zm28.778,0v-16.066h4.628v16.066Zm.412-18.829a2.673,2.673,0,1,1,1.9.795A2.585,2.585,0,0,1,2767.6,9066.423Zm18.32,3.234v3.963a7.637,7.637,0,0,0-3.931-.984,2.077,2.077,0,0,0-1.268.334,1.012,1.012,0,0,0-.444.843.98.98,0,0,0,.158.534,1.527,1.527,0,0,0,.523.477c.242.15.475.284.7.4s.528.257.919.428.7.316.934.443a8.107,8.107,0,0,1,2.345,1.76,3.688,3.688,0,0,1,.887,2.549,4.347,4.347,0,0,1-1.711,3.678,7.3,7.3,0,0,1-4.532,1.3,10.866,10.866,0,0,1-4.881-.983v-4.119a7.976,7.976,0,0,0,4.627,1.523q1.743,0,1.743-1.112a1,1,0,0,0-.158-.538,1.524,1.524,0,0,0-.539-.475q-.38-.223-.7-.367c-.211-.095-.518-.224-.92-.394s-.706-.31-.918-.411q-3.2-1.523-3.2-4.563a4.242,4.242,0,0,1,1.791-3.646,7.368,7.368,0,0,1,4.453-1.3,11.1,11.1,0,0,1,4.121.664Zm13.818,0v3.963a7.629,7.629,0,0,0-3.93-.984,2.078,2.078,0,0,0-1.268.334,1.015,1.015,0,0,0-.443.843.976.976,0,0,0,.158.534,1.523,1.523,0,0,0,.523.477c.243.15.475.284.7.4s.528.257.918.428.7.316.936.443a8.111,8.111,0,0,1,2.345,1.76,3.687,3.687,0,0,1,.887,2.549,4.348,4.348,0,0,1-1.711,3.678,7.3,7.3,0,0,1-4.533,1.3,10.865,10.865,0,0,1-4.88-.983v-4.119a7.975,7.975,0,0,0,4.628,1.523q1.743,0,1.743-1.112a1.007,1.007,0,0,0-.159-.538,1.516,1.516,0,0,0-.539-.475,7.808,7.808,0,0,0-.7-.367c-.21-.095-.517-.224-.918-.394s-.708-.31-.919-.411q-3.2-1.523-3.2-4.563a4.244,4.244,0,0,1,1.791-3.646,7.367,7.367,0,0,1,4.453-1.3,11.1,11.1,0,0,1,4.121.664Zm3.835,15.595v-16.066h4.627v16.066Zm.412-18.829a2.672,2.672,0,1,1,1.9.795A2.584,2.584,0,0,1,2803.982,9066.423Zm15.277,19.082a7.474,7.474,0,0,1-5.832-2.268,8.309,8.309,0,0,1-2.06-5.812,8.774,8.774,0,0,1,2.155-6.1,8.24,8.24,0,0,1,11.538-.08,8.531,8.531,0,0,1,2.06,5.9,8.758,8.758,0,0,1-2.075,6,7.3,7.3,0,0,1-5.784,2.361Zm-.031-12.931a2.481,2.481,0,0,0-2.282,1.3,7.766,7.766,0,0,0,.016,6.737,2.539,2.539,0,0,0,2.33,1.315,2.449,2.449,0,0,0,2.266-1.285,6.613,6.613,0,0,0,.745-3.343Q2822.3,9072.576,2819.228,9072.574Zm15.53-3.389v2.723a4.72,4.72,0,0,1,1.854-2.108,5.571,5.571,0,0,1,3-.774,5.062,5.062,0,0,1,3.866,1.472,6.066,6.066,0,0,1,1.4,4.326v10.429h-4.628v-9.573a3.159,3.159,0,0,0-.665-2.17,2.371,2.371,0,0,0-1.87-.746,2.642,2.642,0,0,0-2.108,1,4.566,4.566,0,0,0-.84,3v8.492h-4.627v-16.066Z" transform="translate(-2555.666 -8785.862)" fill="#e14124"/>
  <path id="Path_26224" data-name="Path 26224" d="M1265.783,10516.284v-.033a2.692,2.692,0,0,0-.583-1.832,3.956,3.956,0,0,0-1.6-1.044,3.074,3.074,0,0,0,.588-.4,2.575,2.575,0,0,0,.482-.543,2.741,2.741,0,0,0,.332-.7,2.856,2.856,0,0,0,.125-.889v-.031a2.68,2.68,0,0,0-1.026-2.206,4.417,4.417,0,0,0-2.829-.821h-5.427v11.7h5.56a7.337,7.337,0,0,0,1.795-.2,4.067,4.067,0,0,0,1.385-.6,2.745,2.745,0,0,0,.883-1,3.056,3.056,0,0,0,.31-1.408Zm-3.194-5a1.012,1.012,0,0,1-.5.948,2.7,2.7,0,0,1-1.354.294h-2.375v-2.478h2.542a2.172,2.172,0,0,1,1.254.307,1.038,1.038,0,0,1,.435.9Zm.652,4.684a1.068,1.068,0,0,1-.485.965,2.47,2.47,0,0,1-1.338.308h-3.06v-2.574h2.976a2.44,2.44,0,0,1,1.455.341,1.1,1.1,0,0,1,.452.929Zm12.559,3.531v-8.967h-2.541v4.99a1.923,1.923,0,0,1-.427,1.358,1.509,1.509,0,0,1-1.161.46,1.433,1.433,0,0,1-1.138-.46,2.005,2.005,0,0,1-.4-1.358v-4.99h-2.542v5.806a3.54,3.54,0,0,0,.794,2.443,2.872,2.872,0,0,0,2.249.884,2.868,2.868,0,0,0,1.572-.437,3.788,3.788,0,0,0,.577-.462,5.694,5.694,0,0,0,.477-.551v1.278h2.542Zm5-9.953v-2.254h-2.676v2.254Zm-.067,9.953v-8.967h-2.542v8.967Zm5.05,0v-12.207h-2.542v12.207Zm11.4,0v-12.207h-2.541v4.405a4.394,4.394,0,0,0-1.113-.931,3.209,3.209,0,0,0-1.68-.4,4.072,4.072,0,0,0-1.539.3,3.71,3.71,0,0,0-1.3.9,4.516,4.516,0,0,0-.9,1.455,5.308,5.308,0,0,0-.343,1.979v.035a5.308,5.308,0,0,0,.343,1.979,4.519,4.519,0,0,0,.911,1.459,3.735,3.735,0,0,0,1.3.89,3.993,3.993,0,0,0,1.522.3,3.157,3.157,0,0,0,1.664-.406,4.023,4.023,0,0,0,1.129-1.037v1.277Zm-2.508-4.466a2.821,2.821,0,0,1-.176,1.017,2.513,2.513,0,0,1-.468.791,2.077,2.077,0,0,1-2.374.509,2.167,2.167,0,0,1-.694-.509,2.433,2.433,0,0,1-.476-.791,2.827,2.827,0,0,1-.176-1.017V10515a2.8,2.8,0,0,1,.176-1.022,2.433,2.433,0,0,1,.476-.785,2.077,2.077,0,0,1,.694-.507,2.042,2.042,0,0,1,2.374.507,2.514,2.514,0,0,1,.468.789,2.838,2.838,0,0,1,.176,1.019Zm7.509-5.487v-2.254h-2.675v2.254Zm-.067,9.953v-8.967h-2.542v8.967Zm10.6,0v-5.8a3.531,3.531,0,0,0-.794-2.443,2.859,2.859,0,0,0-2.249-.884,2.919,2.919,0,0,0-.87.116,2.953,2.953,0,0,0-.7.319,3.732,3.732,0,0,0-.577.463,5.142,5.142,0,0,0-.477.55v-1.281h-2.542v8.963h2.542v-4.986a1.921,1.921,0,0,1,.426-1.358,1.5,1.5,0,0,1,1.162-.462,1.422,1.422,0,0,1,1.138.462,2,2,0,0,1,.4,1.358v4.986h2.542Zm11.22-2.024v-6.942H1321.4v1.174a4.891,4.891,0,0,0-1.187-.952,3.354,3.354,0,0,0-1.706-.385,4.081,4.081,0,0,0-1.488.275,3.631,3.631,0,0,0-1.271.81,4.011,4.011,0,0,0-.886,1.312,4.484,4.484,0,0,0-.334,1.784v.033a4.57,4.57,0,0,0,.326,1.78,3.915,3.915,0,0,0,.878,1.311,3.671,3.671,0,0,0,1.271.811,4.155,4.155,0,0,0,1.5.28,3.338,3.338,0,0,0,1.689-.388,4.6,4.6,0,0,0,1.237-1.07v.434a2.452,2.452,0,0,1-.627,1.825,2.66,2.66,0,0,1-1.931.621,5.329,5.329,0,0,1-1.614-.224,6.884,6.884,0,0,1-1.413-.6l-.869,1.909a7.9,7.9,0,0,0,1.856.692,8.865,8.865,0,0,0,2.107.242,8.082,8.082,0,0,0,2.19-.265,3.885,3.885,0,0,0,1.564-.837,3.452,3.452,0,0,0,.936-1.462A6.683,6.683,0,0,0,1323.943,10517.474Zm-2.508-2.892a2.065,2.065,0,0,1-.167.834,1.988,1.988,0,0,1-.46.661,2.017,2.017,0,0,1-.694.425,2.474,2.474,0,0,1-.87.153,2.22,2.22,0,0,1-1.556-.569,1.945,1.945,0,0,1-.619-1.5v-.033a2.111,2.111,0,0,1,.167-.842,2.02,2.02,0,0,1,.46-.657,2.108,2.108,0,0,1,.686-.428,2.469,2.469,0,0,1,.861-.15,2.542,2.542,0,0,1,.87.15,2.083,2.083,0,0,1,.694.428,2,2,0,0,1,.459.657,2.091,2.091,0,0,1,.167.842v.033Zm20.853-.936v-.035a5.832,5.832,0,0,0-.452-2.3,5.452,5.452,0,0,0-1.279-1.845,5.9,5.9,0,0,0-1.973-1.228,6.906,6.906,0,0,0-2.516-.444H1331.5v11.705h4.565a6.709,6.709,0,0,0,2.516-.456,6.084,6.084,0,0,0,1.973-1.233,5.47,5.47,0,0,0,1.279-1.856A5.868,5.868,0,0,0,1342.288,10513.646Zm-2.692.031a3.717,3.717,0,0,1-.259,1.421,3.347,3.347,0,0,1-.719,1.1,3.048,3.048,0,0,1-1.112.72,4,4,0,0,1-1.438.252h-1.99v-7.057h1.99a3.88,3.88,0,0,1,1.438.259,3.153,3.153,0,0,1,1.112.729,3.337,3.337,0,0,1,.719,1.118,3.822,3.822,0,0,1,.259,1.424Zm7.442-4.133v-2.254h-2.676v2.254Zm-.067,9.953v-8.967h-2.542v8.967Zm11.4-2.024v-6.942h-2.541v1.174a4.9,4.9,0,0,0-1.188-.952,3.352,3.352,0,0,0-1.705-.385,4.088,4.088,0,0,0-1.489.275,3.64,3.64,0,0,0-1.271.81,4.011,4.011,0,0,0-.886,1.312,4.484,4.484,0,0,0-.335,1.784v.033a4.561,4.561,0,0,0,.326,1.78,3.909,3.909,0,0,0,.878,1.311,3.658,3.658,0,0,0,1.271.811,4.155,4.155,0,0,0,1.5.28,3.337,3.337,0,0,0,1.689-.388,4.6,4.6,0,0,0,1.237-1.07v.434a2.45,2.45,0,0,1-.627,1.825,2.658,2.658,0,0,1-1.931.621,5.332,5.332,0,0,1-1.614-.224,6.894,6.894,0,0,1-1.413-.6l-.87,1.909a7.92,7.92,0,0,0,1.856.692,8.865,8.865,0,0,0,2.107.242,8.08,8.08,0,0,0,2.19-.265,3.884,3.884,0,0,0,1.564-.837,3.448,3.448,0,0,0,.937-1.462A6.7,6.7,0,0,0,1358.374,10517.474Zm-2.508-2.892a2.069,2.069,0,0,1-.167.834,1.991,1.991,0,0,1-.459.661,2.014,2.014,0,0,1-.694.425,2.474,2.474,0,0,1-.87.153,2.219,2.219,0,0,1-1.555-.569,1.948,1.948,0,0,1-.619-1.5v-.033a2.1,2.1,0,0,1,.167-.842,2.024,2.024,0,0,1,.46-.657,2.109,2.109,0,0,1,.686-.428,2.469,2.469,0,0,1,.861-.15,2.543,2.543,0,0,1,.87.15,2.086,2.086,0,0,1,.694.428,2,2,0,0,1,.46.657,2.1,2.1,0,0,1,.167.842v.033Zm7.509-5.037v-2.254H1360.7v2.254Zm-.067,9.953v-8.967h-2.542v8.967Zm7.424-.368v-2.043a2.556,2.556,0,0,1-1.254.32c-.547,0-.82-.29-.82-.873v-3.829h2.107v-2.174h-2.107v-2.289h-2.542v2.289h-1.07v2.174h1.07v4.249a3.712,3.712,0,0,0,.192,1.295,2.148,2.148,0,0,0,.535.832,1.951,1.951,0,0,0,.819.443,4.3,4.3,0,0,0,1.062.121,3.925,3.925,0,0,0,1.12-.144,3.817,3.817,0,0,0,.886-.372Zm9.615.368v-5.2a3.481,3.481,0,0,0-4-3.862,8.22,8.22,0,0,0-1.94.2,10.544,10.544,0,0,0-1.538.522l.635,1.937a8.892,8.892,0,0,1,1.179-.359,6.084,6.084,0,0,1,1.3-.124,2.168,2.168,0,0,1,1.438.415,1.527,1.527,0,0,1,.485,1.221v.153a7.731,7.731,0,0,0-1-.27,6.454,6.454,0,0,0-1.2-.1,5.644,5.644,0,0,0-1.463.177,3.348,3.348,0,0,0-1.137.529,2.384,2.384,0,0,0-.744.888,2.785,2.785,0,0,0-.268,1.268v.034a2.679,2.679,0,0,0,.243,1.176,2.487,2.487,0,0,0,.66.861,2.744,2.744,0,0,0,.978.527,3.884,3.884,0,0,0,1.2.179,3.643,3.643,0,0,0,1.588-.312,3.529,3.529,0,0,0,1.121-.827v.969h2.458Zm-2.408-3.161a1.391,1.391,0,0,1-.543,1.137,2.258,2.258,0,0,1-1.447.434,1.647,1.647,0,0,1-1-.283.939.939,0,0,1-.384-.8v-.029a1.055,1.055,0,0,1,.469-.926,2.307,2.307,0,0,1,1.288-.315,4.054,4.054,0,0,1,.878.088,4.62,4.62,0,0,1,.744.245v.454Zm7.258,3.161v-12.207h-2.542v12.207Zm17.575,0v-11.705H1400.2v4.631h-4.749v-4.631h-2.575v11.705h2.575v-4.7h4.749v4.7Zm10.9-4.229v-.037a6.422,6.422,0,0,0-.259-1.828,4.507,4.507,0,0,0-.8-1.558,3.915,3.915,0,0,0-1.363-1.077,4.356,4.356,0,0,0-1.94-.4,4.248,4.248,0,0,0-3.194,1.368,4.594,4.594,0,0,0-.911,1.491,4.982,4.982,0,0,0-.326,1.8v.033a4.848,4.848,0,0,0,.351,1.882,4.417,4.417,0,0,0,.978,1.464,4.323,4.323,0,0,0,1.488.949,5.118,5.118,0,0,0,1.865.336,4.749,4.749,0,0,0,2.124-.441,4.5,4.5,0,0,0,1.539-1.229l-1.455-1.288a3.941,3.941,0,0,1-1.036.7,2.825,2.825,0,0,1-1.137.218,2.27,2.27,0,0,1-1.43-.445,2.139,2.139,0,0,1-.761-1.312h6.238c.011-.123.019-.226.025-.316S1413.675,10515.392,1413.675,10515.269Zm-2.475-.954h-3.83a2.594,2.594,0,0,1,.644-1.389,1.7,1.7,0,0,1,1.3-.518,1.662,1.662,0,0,1,1.288.526A2.464,2.464,0,0,1,1411.2,10514.314Zm12.073,5.184v-5.2a3.481,3.481,0,0,0-4-3.862,8.049,8.049,0,0,0-1.939.2,10.185,10.185,0,0,0-1.539.52l.635,1.937a9.208,9.208,0,0,1,1.179-.359,6.08,6.08,0,0,1,1.3-.124,2.167,2.167,0,0,1,1.438.415,1.526,1.526,0,0,1,.485,1.221v.153a7.728,7.728,0,0,0-.995-.27,6.455,6.455,0,0,0-1.2-.1,5.638,5.638,0,0,0-1.463.177,3.343,3.343,0,0,0-1.137.529,2.391,2.391,0,0,0-.744.888,2.785,2.785,0,0,0-.267,1.268v.034a2.683,2.683,0,0,0,.242,1.176,2.523,2.523,0,0,0,.66.864,2.789,2.789,0,0,0,.978.524,3.886,3.886,0,0,0,1.2.179,3.645,3.645,0,0,0,1.588-.312,3.522,3.522,0,0,0,1.121-.825v.967h2.458Zm-2.408-3.161a1.387,1.387,0,0,1-.544,1.137,2.248,2.248,0,0,1-1.446.434,1.646,1.646,0,0,1-1-.283.937.937,0,0,1-.385-.8v-.031a1.055,1.055,0,0,1,.468-.926,2.307,2.307,0,0,1,1.287-.315,4.541,4.541,0,0,1,.879.088,4.633,4.633,0,0,1,.744.245v.454Zm7.258,3.161v-12.207h-2.542v12.207Zm7.424-.368v-2.043a2.556,2.556,0,0,1-1.254.32c-.546,0-.819-.29-.819-.873v-3.828h2.107v-2.171h-2.107v-2.293h-2.542v2.293h-1.071v2.171h1.071v4.248a3.713,3.713,0,0,0,.192,1.295,2.151,2.151,0,0,0,.535.832,1.936,1.936,0,0,0,.819.443,4.3,4.3,0,0,0,1.062.121,3.922,3.922,0,0,0,1.12-.144,3.814,3.814,0,0,0,.886-.372Zm10.117.368v-5.8a3.53,3.53,0,0,0-.794-2.443,2.859,2.859,0,0,0-2.249-.884,2.915,2.915,0,0,0-.87.116,2.963,2.963,0,0,0-.7.319,3.715,3.715,0,0,0-.577.464,5.087,5.087,0,0,0-.476.549v-4.525h-2.542v12.207H1440v-4.986a1.921,1.921,0,0,1,.427-1.358,1.5,1.5,0,0,1,1.162-.462,1.421,1.421,0,0,1,1.137.462,2,2,0,0,1,.4,1.358v4.986h2.542Zm16.388,0v-2.294H1455.7v-2.455h5.518v-2.294H1455.7v-2.368h6.271v-2.294h-8.812v11.705Zm9.933-1.439-1.488-1.5a5.061,5.061,0,0,1-.944.694,2.3,2.3,0,0,1-1.112.257,2.192,2.192,0,0,1-1.655-.717,2.31,2.31,0,0,1-.46-.789,2.89,2.89,0,0,1-.159-.97V10515a2.758,2.758,0,0,1,.159-.942,2.365,2.365,0,0,1,.451-.776,2.166,2.166,0,0,1,.686-.528,1.922,1.922,0,0,1,.878-.192,2.273,2.273,0,0,1,1.146.265,4.227,4.227,0,0,1,.895.722l1.555-1.669a4.638,4.638,0,0,0-1.471-1.106,4.878,4.878,0,0,0-2.107-.4,4.822,4.822,0,0,0-1.9.366,4.557,4.557,0,0,0-1.479,1,4.732,4.732,0,0,0-1.321,3.3v.031a4.654,4.654,0,0,0,.351,1.8,4.5,4.5,0,0,0,2.449,2.465,4.683,4.683,0,0,0,1.865.368,4.48,4.48,0,0,0,2.174-.461,5.724,5.724,0,0,0,1.488-1.177Zm10.919-3.026V10515a4.488,4.488,0,0,0-.368-1.812,4.589,4.589,0,0,0-1.011-1.473,4.666,4.666,0,0,0-1.53-.983,5.31,5.31,0,0,0-3.863,0,4.82,4.82,0,0,0-1.538,1,4.654,4.654,0,0,0-1.021,1.479,4.51,4.51,0,0,0-.368,1.816v.033a4.5,4.5,0,0,0,.368,1.814,4.63,4.63,0,0,0,1.012,1.473,4.8,4.8,0,0,0,1.53.986,5.334,5.334,0,0,0,3.862-.009,4.81,4.81,0,0,0,1.539-1,4.7,4.7,0,0,0,1.02-1.479A4.514,4.514,0,0,0,1482.905,10515.032Zm-2.508.033a2.8,2.8,0,0,1-.159.946,2.361,2.361,0,0,1-.459.779,2.175,2.175,0,0,1-.728.522,2.329,2.329,0,0,1-.978.194,2.215,2.215,0,0,1-.961-.2,2.35,2.35,0,0,1-.744-.544,2.4,2.4,0,0,1-.485-.784,2.654,2.654,0,0,1-.167-.945V10515a2.757,2.757,0,0,1,.159-.942,2.3,2.3,0,0,1,.46-.776,2.149,2.149,0,0,1,.727-.528,2.3,2.3,0,0,1,.979-.192,2.234,2.234,0,0,1,.953.2,2.336,2.336,0,0,1,.753.541,2.375,2.375,0,0,1,.484.79,2.622,2.622,0,0,1,.167.941Zm10.92,1.7v-.031a2.074,2.074,0,0,0-.251-1.053,2.564,2.564,0,0,0-.635-.737,4.023,4.023,0,0,0-.87-.508q-.485-.208-.953-.361c-.245-.078-.477-.154-.694-.232a4.755,4.755,0,0,1-.576-.248,1.616,1.616,0,0,1-.4-.261.443.443,0,0,1-.151-.327v-.035a.549.549,0,0,1,.234-.446,1.2,1.2,0,0,1,.7-.175,3.381,3.381,0,0,1,1.12.23,7.5,7.5,0,0,1,1.3.61l.969-1.756a6.383,6.383,0,0,0-1.614-.761,5.731,5.731,0,0,0-1.731-.277,4.221,4.221,0,0,0-1.279.185,2.95,2.95,0,0,0-1.037.553,2.689,2.689,0,0,0-.7.894,2.717,2.717,0,0,0-.259,1.212v.035a2.321,2.321,0,0,0,.242,1.1,2.452,2.452,0,0,0,.627.759,3.2,3.2,0,0,0,.861.5,8.282,8.282,0,0,0,.945.329c.245.079.48.152.7.22s.421.138.594.206a1.285,1.285,0,0,1,.409.263.488.488,0,0,1,.151.353v.033a.568.568,0,0,1-.259.482,1.4,1.4,0,0,1-.811.187,3.956,3.956,0,0,1-1.363-.27,6.122,6.122,0,0,1-1.463-.8l-1.087,1.675a6.28,6.28,0,0,0,3.846,1.353,4.856,4.856,0,0,0,1.346-.179,3.227,3.227,0,0,0,1.1-.521,2.447,2.447,0,0,0,.728-.9A3.017,3.017,0,0,0,1491.317,10516.769Zm10.351-6.237h-2.642l-1.956,6.105-2.041-6.105h-2.692l3.511,9a1.178,1.178,0,0,1-.359.46.953.953,0,0,1-.526.122,1.62,1.62,0,0,1-.544-.1,2.808,2.808,0,0,1-.544-.249l-.853,1.84a4.89,4.89,0,0,0,1.02.451,4.065,4.065,0,0,0,1.237.167,3.431,3.431,0,0,0,1-.133,2.1,2.1,0,0,0,.778-.436,3.254,3.254,0,0,0,.627-.778,6.873,6.873,0,0,0,.535-1.165l3.445-9.176Zm8.077,6.237v-.031a2.079,2.079,0,0,0-.251-1.053,2.563,2.563,0,0,0-.635-.737,4.034,4.034,0,0,0-.87-.508q-.485-.208-.953-.361c-.245-.078-.477-.154-.694-.232a4.665,4.665,0,0,1-.577-.248,1.616,1.616,0,0,1-.4-.261.442.442,0,0,1-.15-.327v-.035a.547.547,0,0,1,.234-.446,1.2,1.2,0,0,1,.7-.175,3.381,3.381,0,0,1,1.12.23,7.52,7.52,0,0,1,1.305.61l.969-1.756a6.383,6.383,0,0,0-1.614-.761,5.736,5.736,0,0,0-1.731-.277,4.227,4.227,0,0,0-1.279.185,2.948,2.948,0,0,0-1.036.553,2.629,2.629,0,0,0-.961,2.105v.035a2.327,2.327,0,0,0,.242,1.1,2.462,2.462,0,0,0,.627.759,3.21,3.21,0,0,0,.862.5,8.242,8.242,0,0,0,.945.329q.368.119.7.22c.223.064.421.138.594.206a1.284,1.284,0,0,1,.409.263.486.486,0,0,1,.15.353v.033a.568.568,0,0,1-.259.482,1.4,1.4,0,0,1-.812.187,3.96,3.96,0,0,1-1.363-.27,6.132,6.132,0,0,1-1.463-.8l-1.086,1.675a6.276,6.276,0,0,0,3.846,1.353,4.858,4.858,0,0,0,1.346-.179,3.231,3.231,0,0,0,1.1-.521,2.442,2.442,0,0,0,.728-.9A3.013,3.013,0,0,0,1509.745,10516.769Zm6.856,2.361v-2.043a2.557,2.557,0,0,1-1.254.32c-.546,0-.819-.29-.819-.873v-3.825h2.106v-2.174h-2.106v-2.293h-2.542v2.293h-1.07v2.174h1.07v4.245a3.7,3.7,0,0,0,.192,1.295,2.132,2.132,0,0,0,.535.832,1.939,1.939,0,0,0,.819.443,4.3,4.3,0,0,0,1.062.121,3.925,3.925,0,0,0,1.121-.144,3.808,3.808,0,0,0,.886-.372Zm10.267-3.861v-.037a6.431,6.431,0,0,0-.259-1.828,4.511,4.511,0,0,0-.8-1.558,3.914,3.914,0,0,0-1.363-1.077,4.354,4.354,0,0,0-1.94-.4,4.248,4.248,0,0,0-3.195,1.368,4.607,4.607,0,0,0-.911,1.491,4.982,4.982,0,0,0-.326,1.8v.033a4.874,4.874,0,0,0,.351,1.884,4.442,4.442,0,0,0,.979,1.462,4.271,4.271,0,0,0,1.488.949,5.115,5.115,0,0,0,1.865.336,4.753,4.753,0,0,0,2.124-.441,4.505,4.505,0,0,0,1.538-1.229l-1.455-1.288a3.719,3.719,0,0,1-1.036.7,2.827,2.827,0,0,1-1.138.218,2.279,2.279,0,0,1-1.429-.443,2.141,2.141,0,0,1-.761-1.314h6.237c.011-.123.02-.226.025-.316s.009-.192.009-.315Zm-2.474-.954h-3.829a2.594,2.594,0,0,1,.644-1.389,1.706,1.706,0,0,1,1.3-.518,1.669,1.669,0,0,1,1.288.526A2.462,2.462,0,0,1,1524.393,10514.314Zm18.043,5.184v-5.838a3.421,3.421,0,0,0-.8-2.458,2.946,2.946,0,0,0-2.224-.834,3.586,3.586,0,0,0-1.639.361,4.053,4.053,0,0,0-1.3,1.071,2.483,2.483,0,0,0-.995-1.062,3.1,3.1,0,0,0-3.119.065,3.738,3.738,0,0,0-.577.464,5.216,5.216,0,0,0-.477.549v-1.281h-2.542v8.963h2.542v-4.986a1.979,1.979,0,0,1,.41-1.358,1.426,1.426,0,0,1,1.129-.462,1.35,1.35,0,0,1,1.1.462,2.065,2.065,0,0,1,.384,1.358v4.986h2.542v-4.986a1.977,1.977,0,0,1,.41-1.358,1.426,1.426,0,0,1,1.129-.462,1.351,1.351,0,0,1,1.1.462,2.067,2.067,0,0,1,.384,1.358v4.986h2.542Z" transform="translate(-1217.604 -10187.305)" fill="#29298c"/>
</svg>
